PathFileType	4	(x/y/z)	S06_PSF_T02
DataRate	CameraRate	NumFrames	NumMarkers	Units	OrigDataRate	OrigDataStartFrame	OrigNumFrames
240	240	10	51	mm	240	1	402
Frame#	Time	Sternum			R.Acromium			L.Acromium			Top.Head			R.ASIS			L.ASIS			R.PSIS			L.PSIS			R.Great.Tro			L.Great.Tro			R.Iliac.Crest			L.Iliac.Crest			V.Sacral			R.Thigh.Upper.Post			R.Thigh.Lower.Ant			R.Thigh.Lower.Post			R.Thigh.Upper.Ant			R.Knee.Lat			R.Knee.Med			R.Shank.Upper.Post			R.Shank.Lower.Ant			R.Shank.Lower.Post			R.Shank.Upper.Ant			R.Ankle.Lat			R.Ankle.Med			R.Heel.Upper			R.Heel.Med			R.Heel.Lat			R.Toe.Lat			R.Toe.Med			R.Toe.Tip			L.Thigh.Upper.Post			L.Thigh.Lower.Ant			L.Thigh.Lower.Post			L.Thigh.Upper.Ant			L.Knee.Lat			L.Knee.Med			L.Shank.Upper.Post			L.Shank.Lower.Ant			L.Shank.Lower.Post			L.Shank.Upper.Ant			L.Ankle.Lat			L.Ankle.Med			L.Heel.Upper			L.Heel.Med			L.Heel.Lat			L.Toe.Lat			L.Toe.Med			L.Toe.Tip			Cervical.Spine			Back			
		X1	Y1	Z1	X2	Y2	Z2	X3	Y3	Z3	X4	Y4	Z4	X5	Y5	Z5	X6	Y6	Z6	X7	Y7	Z7	X8	Y8	Z8	X9	Y9	Z9	X10	Y10	Z10	X11	Y11	Z11	X12	Y12	Z12	X13	Y13	Z13	X14	Y14	Z14	X15	Y15	Z15	X16	Y16	Z16	X17	Y17	Z17	X18	Y18	Z18	X19	Y19	Z19	X20	Y20	Z20	X21	Y21	Z21	X22	Y22	Z22	X23	Y23	Z23	X24	Y24	Z24	X25	Y25	Z25	X26	Y26	Z26	X27	Y27	Z27	X28	Y28	Z28	X29	Y29	Z29	X30	Y30	Z30	X31	Y31	Z31	X32	Y32	Z32	X33	Y33	Z33	X34	Y34	Z34	X35	Y35	Z35	X36	Y36	Z36	X37	Y37	Z37	X38	Y38	Z38	X39	Y39	Z39	X40	Y40	Z40	X41	Y41	Z41	X42	Y42	Z42	X43	Y43	Z43	X44	Y44	Z44	X45	Y45	Z45	X46	Y46	Z46	X47	Y47	Z47	X48	Y48	Z48	X49	Y49	Z49	X50	Y50	Z50	X51	Y51	Z51	

1	0	NaN	NaN	NaN	-1588.5	1493.6	496.48	-1609.4	1490.1	147.42	-1547.8	1805.4	316.1	NaN	NaN	NaN	NaN	NaN	NaN	-1719.2	1069.5	358.5	-1720.9	1071.7	278.81	-1598.5	973.93	510.43	-1599.6	969.66	149.8	-1617.1	1127.8	489.26	-1584.5	1118.3	170.07	-1734.1	1037.1	322.77	-1656.1	733.3	484.66	-1609.8	644.23	446.59	-1688.3	653.48	462.48	NaN	NaN	NaN	-1703.6	540.1	442.61	-1685.2	549.22	313.72	-1804.3	332.07	424.58	-1761.9	253.56	402.76	-1829.4	259.66	403.77	-1739.8	324.15	419.73	NaN	NaN	NaN	NaN	NaN	NaN	-1911.3	92.136	320.7	-1901.8	59.133	291.66	-1908.2	61.84	355.48	-1732.4	44.285	407.07	-1696.5	49.153	284.15	-1640.2	53.841	339.57	-1462.3	731.84	168.92	NaN	NaN	NaN	-1457.1	642.16	185.71	-1417.9	760.77	218.32	-1448.7	550.29	205.12	-1430.8	559.79	327.54	-1410.3	323.83	212.72	-1327.3	290.7	208.59	-1386.8	255.33	227.64	-1352.8	356.74	199	-1287	139.33	221.26	-1282.3	166.97	309.89	NaN	NaN	NaN	-1317	47.051	303.82	-1317.5	46.36	242.4	-1154.2	118	199.32	NaN	NaN	NaN	-1082.9	181.85	258.92	-1655.5	1545	324.01	-1715	1273.9	327.96
2	0.0041667	NaN	NaN	NaN	-1583.7	1492.9	496.39	-1604.7	1489.4	147.31	-1543.4	1804.9	315.97	NaN	NaN	NaN	NaN	NaN	NaN	-1714.3	1068.7	358.28	-1716.1	1071	278.6	-1593.9	973.47	510.26	-1594.8	969.05	149.58	-1612	1127	489.02	-1580	1117.7	169.84	-1729.4	1036.4	322.56	-1651.7	733	484.47	-1605.3	643.94	446.49	-1684.3	653.25	462.23	NaN	NaN	NaN	-1699.7	539.8	442.53	-1681.1	548.78	313.71	-1802.9	332.53	424.48	-1759.6	253.95	402.49	-1827.3	260.32	403.88	-1737.5	324.22	419.58	NaN	NaN	NaN	NaN	NaN	NaN	-1910.8	93.334	320.77	-1901.6	60.339	291.7	-1907.9	62.954	355.52	-1732.3	44.277	407.12	-1696.5	49.112	284.3	-1639.7	53.769	339.32	-1458.2	730.96	169.14	NaN	NaN	NaN	-1453.1	641.31	186.23	-1413.2	759.95	217.89	-1444.1	549.7	205.62	-1426.2	559.37	328.04	-1405.9	323.09	213.4	-1323	289.86	209.42	-1382.5	254.54	228.42	-1348.3	355.92	199.75	-1283	138.58	222.21	-1278.2	166.09	310.83	NaN	NaN	NaN	-1313	46.115	304.58	-1313.4	45.626	243.18	-1150.2	117.48	200.33	NaN	NaN	NaN	-1078.8	181.26	260.1	-1650.7	1544.4	323.93	-1710.2	1273.2	327.83
3	0.0083333	NaN	NaN	NaN	-1578.6	1492.3	496.28	-1599.9	1488.7	147.19	-1538.8	1804.3	315.84	NaN	NaN	NaN	NaN	NaN	NaN	-1709.2	1068	358.06	-1711	1070.3	278.38	-1589.1	973	510.09	-1589.7	968.41	149.36	-1606.7	1126.3	488.78	-1575.2	1117.1	169.6	-1724.4	1035.7	322.34	-1647.1	732.7	484.28	-1600.7	643.65	446.4	-1680.2	653.01	461.99	NaN	NaN	NaN	-1695.6	539.5	442.47	-1676.9	548.32	313.71	-1801.5	332.98	424.38	-1757.2	254.36	402.21	-1825.1	261	404.01	-1735	324.3	419.44	NaN	NaN	NaN	NaN	NaN	NaN	-1910.3	94.615	320.85	-1901.3	61.629	291.74	-1907.7	64.145	355.57	-1732.3	44.266	407.17	-1696.6	49.071	284.46	-1639.1	53.682	339.06	-1453.9	730.05	169.37	NaN	NaN	NaN	-1448.8	640.44	186.75	-1408.3	759.1	217.44	-1439.3	549.08	206.14	-1421.3	558.94	328.54	-1401.4	322.31	214.1	-1318.5	288.95	210.29	-1378.1	253.71	229.23	-1343.7	355.04	200.52	-1278.9	137.76	223.2	-1274	165.13	311.8	NaN	NaN	NaN	-1309.1	45.169	305.38	-1309.2	44.872	244	-1146.2	116.79	201.39	NaN	NaN	NaN	-1074.7	180.48	261.33	-1645.7	1543.8	323.85	-1705.3	1272.5	327.7
4	0.0125	NaN	NaN	NaN	-1573.4	1491.6	496.16	-1594.9	1488	147.06	-1534	1803.7	315.7	NaN	NaN	NaN	NaN	NaN	NaN	-1703.9	1067.3	357.84	-1705.8	1069.6	278.16	-1584.1	972.52	509.91	-1584.5	967.74	149.14	-1601.2	1125.5	488.53	-1570.3	1116.4	169.35	-1719.3	1035	322.14	-1642.3	732.4	484.08	-1595.9	643.35	446.32	-1675.8	652.75	461.75	NaN	NaN	NaN	-1691.3	539.19	442.41	-1672.5	547.85	313.72	-1800.2	333.4	424.29	-1754.7	254.8	401.92	-1822.8	261.72	404.17	-1732.4	324.39	419.31	NaN	NaN	NaN	NaN	NaN	NaN	-1909.7	95.981	320.94	-1901	63.006	291.8	-1907.4	65.415	355.63	-1732.2	44.254	407.22	-1696.6	49.031	284.62	-1638.5	53.577	338.8	-1449.4	729.12	169.59	NaN	NaN	NaN	-1444.4	639.56	187.28	-1403.2	758.24	217	-1434.3	548.45	206.66	-1416.2	558.51	329.03	-1396.8	321.52	214.81	-1314	287.96	211.17	-1373.7	252.84	230.06	-1339	354.09	201.31	-1274.9	136.86	224.2	-1269.9	164.08	312.8	NaN	NaN	NaN	-1305.2	44.224	306.21	-1305.2	44.105	244.85	-1142.1	115.93	202.51	NaN	NaN	NaN	-1070.6	179.49	262.61	-1640.6	1543.2	323.76	-1700.1	1271.8	327.56
5	0.016667	NaN	NaN	NaN	-1568	1490.9	496.02	-1589.7	1487.3	146.92	-1529.1	1803.1	315.56	NaN	NaN	NaN	NaN	NaN	NaN	-1698.5	1066.5	357.63	-1700.5	1068.8	277.95	-1578.9	972.04	509.71	-1579.2	967.04	148.95	-1595.6	1124.8	488.28	-1565.1	1115.8	169.09	-1713.9	1034.3	321.94	-1637.4	732.1	483.89	-1590.9	643.06	446.26	-1671.2	652.49	461.54	NaN	NaN	NaN	-1686.8	538.87	442.37	-1667.8	547.36	313.76	-1799	333.79	424.21	-1752.2	255.27	401.64	-1820.4	262.46	404.36	-1729.7	324.49	419.2	NaN	NaN	NaN	NaN	NaN	NaN	-1909.2	97.434	321.05	-1900.7	64.47	291.86	-1907.1	66.767	355.7	-1732.2	44.239	407.26	-1696.6	48.993	284.78	-1637.9	53.453	338.54	-1444.7	728.2	169.81	NaN	NaN	NaN	-1439.7	638.68	187.81	-1397.9	757.37	216.56	-1429.1	547.8	207.17	-1410.9	558.06	329.51	-1392.2	320.7	215.53	-1309.5	286.91	212.07	-1369.3	251.94	230.9	-1334.2	353.1	202.11	-1270.9	135.87	225.22	-1265.8	162.95	313.81	NaN	NaN	NaN	-1301.5	43.296	307.05	-1301.2	43.337	245.71	-1138.2	114.86	203.67	NaN	NaN	NaN	-1066.5	178.26	263.94	-1635.3	1542.5	323.65	-1694.8	1271.1	327.41
6	0.020833	NaN	NaN	NaN	-1562.5	1490.2	495.88	-1584.5	1486.7	146.77	-1524	1802.6	315.41	NaN	NaN	NaN	NaN	NaN	NaN	-1693	1065.8	357.42	-1695	1068.1	277.74	-1573.6	971.57	509.51	-1573.7	966.32	148.76	-1589.8	1124	488.03	-1559.9	1115.1	168.82	-1708.5	1033.6	321.75	-1632.4	731.81	483.69	-1585.7	642.77	446.22	-1666.5	652.22	461.34	NaN	NaN	NaN	-1682.2	538.55	442.35	-1663.1	546.86	313.81	-1798	334.14	424.13	-1749.7	255.75	401.37	-1817.8	263.24	404.58	-1726.9	324.62	419.12	NaN	NaN	NaN	NaN	NaN	NaN	-1908.5	98.977	321.18	-1900.3	66.027	291.93	-1906.7	68.202	355.78	-1732.1	44.222	407.3	-1696.7	48.957	284.94	-1637.3	53.309	338.29	-1439.8	727.28	170.03	NaN	NaN	NaN	-1434.9	637.81	188.33	-1392.4	756.51	216.13	-1423.7	547.15	207.68	-1405.4	557.62	329.98	-1387.5	319.87	216.25	-1304.9	285.79	212.97	-1364.9	251.02	231.74	-1329.4	352.05	202.91	-1267	134.8	226.25	-1261.8	161.74	314.83	NaN	NaN	NaN	-1297.9	42.397	307.91	-1297.5	42.578	246.59	-1134.3	113.58	204.88	NaN	NaN	NaN	-1062.5	176.78	265.3	-1629.9	1541.9	323.54	-1689.4	1270.4	327.26
7	0.025	NaN	NaN	NaN	-1556.9	1489.5	495.72	-1579.2	1486	146.61	-1518.8	1802	315.25	NaN	NaN	NaN	NaN	NaN	NaN	-1687.4	1065.1	357.22	-1689.4	1067.3	277.55	-1568.1	971.11	509.3	-1568.1	965.59	148.6	-1584	1123.3	487.78	-1554.4	1114.4	168.54	-1702.9	1032.9	321.57	-1627.2	731.54	483.51	-1580.4	642.48	446.21	-1661.5	651.95	461.16	NaN	NaN	NaN	-1677.4	538.21	442.34	-1658.1	546.35	313.89	-1797.1	334.43	424.06	-1747.3	256.24	401.1	-1815.2	264.05	404.83	-1724	324.75	419.07	-1837	134.38	371.8	NaN	NaN	NaN	-1907.9	100.61	321.32	-1900	67.678	292.01	-1906.3	69.725	355.88	-1732	44.202	407.34	-1696.7	48.923	285.11	-1636.8	53.145	338.06	-1434.8	726.37	170.24	NaN	NaN	NaN	-1429.9	636.96	188.84	-1386.8	755.65	215.72	-1418.2	546.49	208.16	-1399.8	557.19	330.42	-1382.8	319.04	216.97	-1300.4	284.61	213.87	-1360.6	250.08	232.58	-1324.6	350.95	203.71	-1263.2	133.64	227.26	-1258	160.45	315.85	NaN	NaN	NaN	-1294.6	41.541	308.77	-1293.9	41.844	247.46	-1130.5	112.08	206.12	NaN	NaN	NaN	-1058.7	175.04	266.71	-1624.5	1541.2	323.43	-1683.9	1269.7	327.11
8	0.029167	NaN	NaN	NaN	-1551.3	1488.8	495.55	-1573.8	1485.3	146.43	-1513.5	1801.4	315.1	NaN	NaN	NaN	NaN	NaN	NaN	-1681.6	1064.4	357.03	-1683.7	1066.6	277.36	-1562.6	970.67	509.08	-1562.5	964.84	148.45	-1578.1	1122.7	487.52	-1548.9	1113.7	168.26	-1697.3	1032.2	321.4	-1621.9	731.28	483.33	-1575	642.2	446.24	-1656.4	651.67	461.01	NaN	NaN	NaN	-1672.4	537.87	442.36	-1653	545.84	314	NaN	NaN	NaN	-1744.9	256.72	400.85	-1812.4	264.9	405.11	-1721	324.91	419.06	-1836.1	135.51	372.02	-1815.6	144.09	289.37	-1907.2	102.34	321.49	-1899.5	69.431	292.11	-1905.9	71.338	355.98	-1731.9	44.18	407.37	-1696.7	48.891	285.28	-1636.3	52.965	337.85	-1429.6	725.48	170.44	NaN	NaN	NaN	-1424.8	636.13	189.34	-1381.1	754.82	215.33	-1412.7	545.83	208.63	-1394	556.76	330.83	-1378.2	318.2	217.67	-1295.9	283.37	214.77	-1356.3	249.12	233.4	-1319.8	349.81	204.5	-1259.6	132.42	228.27	-1254.3	159.09	316.87	NaN	NaN	NaN	-1291.5	40.739	309.61	-1290.7	41.149	248.32	-1126.9	110.37	207.39	NaN	NaN	NaN	-1054.9	173.02	268.15	-1618.9	1540.6	323.3	-1678.3	1269.1	326.95
9	0.033333	NaN	NaN	NaN	-1545.5	1488.2	495.36	-1568.4	1484.7	146.24	-1508.1	1800.8	314.94	NaN	NaN	NaN	NaN	NaN	NaN	-1675.9	1063.7	356.85	-1678	1065.9	277.17	-1556.9	970.25	508.84	-1556.8	964.09	148.33	-1572.1	1122	487.27	-1543.3	1112.9	167.97	-1691.5	1031.5	321.25	-1616.6	731.03	483.16	-1569.6	641.92	446.31	-1651.1	651.38	460.89	NaN	NaN	NaN	-1667.3	537.53	442.4	-1647.8	545.32	314.13	NaN	NaN	NaN	-1742.7	257.2	400.62	-1809.6	265.79	405.42	-1717.8	325.1	419.08	-1835.2	136.71	372.26	-1814.7	145.2	289.59	-1906.5	104.18	321.68	-1899.1	71.29	292.22	-1905.5	73.048	356.1	-1731.8	44.155	407.4	-1696.7	48.862	285.46	-1635.8	52.77	337.66	-1424.3	724.62	170.63	NaN	NaN	NaN	-1419.5	635.32	189.82	-1375.3	754	214.95	-1407	545.17	209.07	-1388.2	556.34	331.21	-1373.6	317.36	218.34	-1291.6	282.08	215.65	-1352.2	248.15	234.2	-1315	348.63	205.28	-1256.1	131.14	229.26	-1250.7	157.66	317.86	NaN	NaN	NaN	-1288.8	40.004	310.43	-1287.6	40.509	249.15	-1123.5	108.47	208.69	NaN	NaN	NaN	-1051.3	170.74	269.62	-1613.4	1540	323.16	-1672.6	1268.4	326.79
10	0.0375	NaN	NaN	NaN	-1539.8	1487.5	495.16	-1562.9	1484.1	146.03	-1502.6	1800.3	314.78	NaN	NaN	NaN	NaN	NaN	NaN	-1670	1063.1	356.68	-1672.1	1065.2	277	-1551.2	969.85	508.6	-1551.1	963.34	148.22	-1566.1	1121.4	487.01	-1537.6	1112.2	167.67	-1685.7	1030.8	321.1	-1611.1	730.79	483	-1564	641.65	446.42	-1645.7	651.08	460.81	NaN	NaN	NaN	-1662	537.18	442.48	-1642.5	544.8	314.29	NaN	NaN	NaN	-1740.6	257.65	400.42	-1806.7	266.73	405.76	-1714.6	325.31	419.15	-1834.2	138	372.52	-1813.7	146.38	289.84	-1905.7	106.12	321.89	-1898.6	73.261	292.34	-1905	74.859	356.23	-1731.6	44.127	407.43	-1696.7	48.837	285.64	-1635.4	52.563	337.5	-1418.8	723.79	170.81	-1356.7	659.95	236.69	-1414.2	634.56	190.29	-1369.4	753.21	214.6	-1401.3	544.52	209.49	-1382.2	555.93	331.55	-1369.1	316.53	218.99	-1287.3	280.76	216.51	-1348.2	247.18	234.97	-1310.3	347.43	206.05	-1252.8	129.8	230.22	-1247.4	156.17	318.84	NaN	NaN	NaN	-1286.3	39.343	311.2	-1284.9	39.938	249.92	-1120.2	106.38	210.01	NaN	NaN	NaN	-1047.9	168.21	271.14	-1607.7	1539.4	323	-1666.9	1267.7	326.62
